HIERARCHY
ROOT Hips
{
	OFFSET	0.00	0.00	0.00
	CHANNELS 6 Xposition Yposition Zposition Zrotation Xrotation Yrotation
	JOINT Spine
	{
		OFFSET	 0.00	0.01	 0.00
		CHANNELS 3 Zrotation Xrotation Yrotation
		JOINT Spine1
		{
			OFFSET	 0.00	 2.45913012437421	 0.00
			CHANNELS 3 Zrotation Xrotation Yrotation
            JOINT Neck
            {
                OFFSET	 0.00	 2.48462964506057	 0.00
                CHANNELS 3 Zrotation Xrotation Yrotation
                JOINT Head
                {
                    OFFSET	 0.00	 0.927524780924562	 0.00
                    CHANNELS 3 Zrotation Xrotation Yrotation
                    End Site 
                    {
                        OFFSET	 0.00	 1.14999962169752	 0.00
                    }
                }
            }
			JOINT LeftShoulder
			{
				OFFSET	 0.00	 2.48462964506057	 0.00
				CHANNELS 3 Zrotation Xrotation Yrotation
				JOINT LeftUpArm
				{
					OFFSET	 0.00	 1.24881979654096	 0.00
					CHANNELS 3 Zrotation Xrotation Yrotation
					JOINT LeftForeArm
					{
						OFFSET	 0.00	2.59758046908119	 0.00
						CHANNELS 3 Zrotation Xrotation Yrotation
						JOINT LeftHand
						{
							OFFSET	 0.00	2.45542024364365	 0.00
							CHANNELS 3 Zrotation Xrotation Yrotation
							JOINT LeftHandThumb 
							{
								OFFSET	 0.00	0.00	 0.00
								CHANNELS 3 Zrotation Xrotation Yrotation
								End Site
								{
									OFFSET	 0.00	0.00	1.00000003353624
								}
							}
							JOINT L_Wrist_End 
							{
								OFFSET	 0.00	0.99999967115358	 0.00
								CHANNELS 3 Zrotation Xrotation Yrotation
								End Site 
								{
									OFFSET	 0.00	 0.00	 0.00
								}
							}
						}
					}
				}
			}
			JOINT RightShoulder
			{
				OFFSET	 0.00	 2.48462964506057	 0.00
				CHANNELS 3 Zrotation Xrotation Yrotation
				JOINT RightUpArm
				{
					OFFSET	 0.00	 1.24881979654096	 0.00
					CHANNELS 3 Zrotation Xrotation Yrotation
					JOINT RightForeArm
					{
						OFFSET	 0.00	2.59758046908119	 0.00
						CHANNELS 3 Zrotation Xrotation Yrotation
						JOINT RightHand
						{
							OFFSET	 0.00	2.45542024364365	 0.00
							CHANNELS 3 Zrotation Xrotation Yrotation
							JOINT RightHandThumb 
							{
								OFFSET	 0.00	0.00	 0.00
								CHANNELS 3 Zrotation Xrotation Yrotation
								End Site
								{
									OFFSET	 0.00	0.00	1.00000003353624
								}
							}
							JOINT R_Wrist_End 
							{
								OFFSET	 0.00	0.99999967115358	 0.00
								CHANNELS 3 Zrotation Xrotation Yrotation
								End Site 
								{
									OFFSET	 0.00	 0.00	 0.00
								}
							}
						}
					}
				}
			}
		}
	}
	JOINT LeftUpLeg
	{
		OFFSET	 1.2719394002717	 0.00	 0.00
		CHANNELS 3 Zrotation Xrotation Yrotation
		JOINT LeftLowLeg
		{
			OFFSET	 0.00	-4.3429100912261	 0.00
			CHANNELS 3 Zrotation Xrotation Yrotation
			JOINT LeftFoot
			{
				OFFSET	 0.00	-4.48767017425826	 0.00
				CHANNELS 3 Zrotation Xrotation Yrotation
				JOINT LeftToeBase
                {
                    OFFSET	 0.00	0.00	 1.51507020887566
                    CHANNELS 3 Zrotation Xrotation Yrotation
                    End Site 
                    {
                        OFFSET	 0.00	0.00	 0.75000010571191
                    }
                }
			}
		}
	}
	JOINT RightUpLeg
	{
		OFFSET	 -1.2719393604653	 0.00	 0.00
		CHANNELS 3 Zrotation Xrotation Yrotation
		JOINT RightLowLeg
		{
			OFFSET	 0.00	-4.3429100912261	 0.00
			CHANNELS 3 Zrotation Xrotation Yrotation
			JOINT RightFoot
			{
				OFFSET	 0.00	-4.48767017425826	 0.00
				CHANNELS 3 Zrotation Xrotation Yrotation
				JOINT RightToeBase
                {
                    OFFSET	 0.00	0.00	 1.51507020887566
                    CHANNELS 3 Zrotation Xrotation Yrotation
                    End Site 
                    {
                        OFFSET	 0.00	0.00	 0.749999965609858
                    }
                }   
			}
		}
	}
}
MOTION 
Frames:	11 
Frame Time: 0.02 
  -2.5627200317382814 -8.509749755859374 9.339149780273438 -116.079 79.916 849.892 5.3652 -11.954 0.560709 -1.5916 10.0788 -6.91077 2.59101 23.2038 -11.9406 93.5332 -77.7948 472.295 -116.6463 4.92435 10.8251 -42.1932 21.5056 66.7323 0.0 95.9018 0.0 -9.40205 -13.9256 -7.13897 0.0 0.0 0.0 0.0 0.0 0.0 111.8768 -7.15244 1.56545 17.3846 0.931534 -319.159 0.0 39.2153 0.0 -1.46497 -0.587303 31.9711 0.0 0.0 0.0 0.0 0.0 0.0 0.577495 -28.6301 -5.57531 0.0 54.878 0.0 -1.46138 -6.441601 19.1058 0.0 -11.821341 0.0 12.2353 -6.97692 376.931 0.0 8.90447 0.0 11.4416 2.5561 -13.5293 0.0 -19.25972 0.0 
  -2.560050048828125 -8.593740234375 9.335969848632812 -115.896 80.0129 850.404 5.47212 -11.6631 0.820214 -1.83017 10.0194 -6.76593 0.122833 23.0735 -8.5716 92.7538 -77.0321 472.139 -116.5317 4.90182 10.8956 -42.4729 21.5475 66.8146 0.0 95.7961 0.0 -9.53955 -14.1309 -6.59739 0.0 0.0 0.0 0.0 0.0 0.0 111.857 -7.16221 1.48432 17.3226 0.968823 -319.008 0.0 39.2967 0.0 -1.41811 -0.600371 31.9775 0.0 0.0 0.0 0.0 0.0 0.0 0.18609 -29.0463 -5.33244 0.0 50.4743 0.0 -0.165392 -5.6564007 19.521 0.0 -12.0802 0.0 12.2696 -6.37921 376.781 0.0 8.83665 0.0 10.8323 2.2040005 -14.2682 0.0 -19.66398 0.0 
  -2.5555099487304687 -8.680440063476562 9.33093994140625 -115.945 80.0176 851.203 5.54428 -11.4947 1.01156 -1.99479 9.99995 -6.64421 -2.1265 22.7718 -5.43128 91.653 -76.2199 471.999 -116.4389 4.90841 10.9768 -42.7183 21.5481 66.8702 0.0 95.6816 0.0 -9.7633 -14.2524 -6.16018 0.0 0.0 0.0 0.0 0.0 0.0 111.723404 -7.04092 1.44947 17.352 0.8664 -318.949 0.0 39.3218 0.0 -1.55574 -0.610538 32.1578 0.0 0.0 0.0 0.0 0.0 0.0 -0.181502 -29.3215 -5.1661 0.0 45.7015 0.0 0.742823 -4.9314003 19.8157 0.0 -12.05247 0.0 12.3681 -5.88797 376.675 0.0 8.8522 0.0 10.3651 1.7076998 -15.0627 0.0 -19.45186 0.0 
  -2.549759979248047 -8.768660278320313 9.323480224609375 -115.918 79.9954 851.956 5.60157 -11.3407 1.18062 -2.14252 10.0012 -6.53295 -4.16046 22.1223 -2.57971 89.575 -75.492 470.786 -116.3822 4.98095 10.9856 -42.8698 21.4449 66.9344 0.0 95.6272 0.0 -10.1189 -14.3756 -6.06431 0.0 0.0 0.0 0.0 0.0 0.0 111.604996 -7.00231 1.43597 17.3917 0.876207 -318.899 0.0 39.3554 0.0 -1.73949 -0.665218 32.402 0.0 0.0 0.0 0.0 0.0 0.0 -0.486688 -29.4476 -4.85609 0.0 40.6925 0.0 1.45956 -4.2847004 19.853 0.0 -12.16436 0.0 12.508 -5.43612 376.527 0.0 8.95926 0.0 9.8784 1.1325998 -15.7872 0.0 -19.2281 0.0 
  -2.541699981689453 -8.859000244140624 9.313870239257813 -115.904 79.9302 852.734 5.65225 -11.2179 1.31895 -2.28731 9.98921 -6.44982 -5.9774 21.2545 0.112583 87.1275 -74.7461 469.148 -116.2764 5.03975 11.0136 -43.0195 21.3611 66.9933 0.0 95.56 0.0 -10.3243 -14.3303 -6.19626 0.0 0.0 0.0 0.0 0.0 0.0 111.4544 -6.93033 1.44109 17.4758 0.865894 -318.916 0.0 39.3556 0.0 -1.70742 -0.7047 31.9615 0.0 0.0 0.0 0.0 0.0 0.0 -0.740038 -29.4749 -4.38027 0.0 35.5882 0.0 1.80556 -4.0804996 19.4229 0.0 -12.24948 0.0 12.6736 -5.04156 376.119 0.0 9.1419 0.0 9.33957 0.5043001 -16.306 0.0 -18.92746 0.0 
  -2.531199951171875 -8.952150268554687 9.302139892578126 -116.273 79.7814 853.921 5.69882 -11.2459 1.44453 -2.48815 9.99903 -6.36756 -7.34957 20.451 2.36936 84.9912 -73.9795 467.895 -116.1374 5.05408 11.0558 -43.1184 21.3988 67.0783 0.0 95.5008 0.0 -10.3879 -14.2863 -5.98487 0.0 0.0 0.0 0.0 0.0 0.0 111.3771 -6.8667 1.39717 17.4833 0.903526 -318.935 0.0 39.2788 0.0 -1.74597 -0.794167 31.4246 0.0 0.0 0.0 0.0 0.0 0.0 -1.01761 -29.4642 -3.90018 0.0 30.4293 0.0 1.91622 -4.1245003 18.7289 0.0 -12.335 0.0 12.8505 -4.77254 375.761 0.0 9.37282 0.0 9.32321 -0.42980003 -16.716 0.0 -18.57066 0.0 
  -2.519530029296875 -9.049240112304688 9.288939819335937 -115.207 79.7997 853.72 5.71911 -10.9758 1.54626 -2.62653 9.95184 -6.335 -9.08287 19.4514 5.08598 83.2109 -73.2188 466.518 -116.0647 5.10964 11.0817 -43.1223 21.3837 67.1706 0.0 95.5157 0.0 -10.3951 -14.2867 -6.12732 0.0 0.0 0.0 0.0 0.0 0.0 111.307 -6.83248 1.3603 17.4531 0.961736 -319.038 0.0 39.1703 0.0 -1.64789 -0.415124 32.302 0.0 0.0 0.0 0.0 0.0 0.0 -1.24804 -29.0379 -3.39498 0.0 25.3075 0.0 1.54906 -4.2080994 17.8683 0.0 -12.43054 0.0 13.1093 -4.18693 375.339 0.0 9.6128 0.0 8.49975 -0.8185997 -17.4099 0.0 -19.069271 0.0 
  -2.50375 -9.149110107421874 9.274140014648438 -114.565 79.7307 853.963 5.74139 -10.8637 1.6308 -2.78194 9.92142 -6.30203 -10.734 18.3962 7.78954 81.8062 -72.422 465.507 -115.950195 5.18931 11.0832 -43.1725 21.3645 67.2583 0.0 95.5172 0.0 -10.3873 -14.2676 -6.32133 0.0 0.0 0.0 0.0 0.0 0.0 111.1938 -6.77438 1.41091 17.4978 0.903158 -319.328 0.0 39.1486 0.0 -1.65406 -0.412987 32.3485 0.0 0.0 0.0 0.0 0.0 0.0 -1.53965 -28.6421 -2.93576 0.0 20.3457 0.0 0.728972 -4.4275 17.1171 0.0 -12.23256 0.0 13.3519 -3.69055 374.569 0.0 9.8221 0.0 7.92955 -1.3959999 -17.7511 0.0 -19.09077 0.0 
  -2.4854400634765623 -9.250960083007813 9.258259887695312 -114.2 79.642 854.477 5.72427 -10.7731 1.71156 -2.96255 9.80213 -6.26158 -12.1915 17.4 10.3391 80.96 -71.6032 465.145 -115.9268 5.248 11.1101 -43.1046 21.4002 67.3599 0.0 95.5498 0.0 -10.4399 -14.296 -6.58399 0.0 0.0 0.0 0.0 0.0 0.0 111.121704 -6.83713 1.25047 17.5505 1.1175 -319.307 0.0 39.0139 0.0 -1.67533 -0.298239 32.3834 0.0 0.0 0.0 0.0 0.0 0.0 -1.87418 -28.2547 -2.37084 0.0 15.6998 0.0 -0.30788 -4.4755993 16.4896 0.0 -12.28321 0.0 13.5675 -3.21313 373.593 0.0 10.0029 0.0 7.39607 -2.0191002 -17.9575 0.0 -18.97253 0.0 
  -2.463820037841797 -9.356530151367188 9.240360107421875 -113.561 79.5102 854.618 5.75968 -10.7057 1.87705 -3.11453 9.63426 -6.1453 -13.6288 16.5346 12.8967 80.705 -70.7115 465.614 -115.9068 5.40131 11.1272 -43.0807 21.3934 67.5336 0.0 95.5528 0.0 -10.4848 -14.2955 -6.65487 0.0 0.0 0.0 0.0 0.0 0.0 111.0206 -6.75101 1.06851 17.6428 0.975896 -319.32 0.0 39.0835 0.0 -1.72171 -0.35753 32.5211 0.0 0.0 0.0 0.0 0.0 0.0 -2.11732 -27.8547 -1.06517 0.0 11.535 0.0 -0.946189 -4.5163994 16.2563 0.0 -12.14057 0.0 13.8216 -2.70765 372.768 0.0 10.1896 0.0 7.07814 -2.5506 -17.8995 0.0 -19.29575 0.0 
  -2.4401800537109377 -9.4677001953125 9.218839721679688 -111.942 79.4522 853.758 5.73513 -10.5118 2.02385 -3.09685 9.42914 -6.00557 -15.0207 15.7253 15.3892 80.5364 -69.8273 466.051 -115.9413 5.51429 11.0063 -43.1323 21.3258 67.8461 0.0 95.5679 0.0 -10.6277 -14.3924 -6.97333 0.0 0.0 0.0 0.0 0.0 0.0 110.8849 -6.66595 1.05316 17.6782 0.80497 -319.414 0.0 39.0958 0.0 -1.68445 -0.361887 32.459 0.0 0.0 0.0 0.0 0.0 0.0 -2.29212 -27.3473 0.828478 0.0 8.09734 0.0 -1.68124 -4.9011993 16.1679 0.0 -11.90116 0.0 14.1658 -1.99549 371.683 0.0 10.4103 0.0 6.67477 -3.145399 -17.7748 0.0 -19.366371 0.0 
